<svg xmlns="http://www.w3.org/2000/svg" viewBox="0 0 440 410" width="440" height="410" role="img" aria-label="Shoply">
  <defs>
    <linearGradient id="cartm" x1="0" y1="0" x2="1" y2="1">
      <stop offset="0" stop-color="#19c98a"/>
      <stop offset="1" stop-color="#12b5b0"/>
    </linearGradient>
  </defs>
  <circle cx="186" cy="158" r="28" fill="#ff7a3d"/>
  <path d="M186 132 q13 -15 28 -9 q-9 13 -28 11 Z" fill="#2bb673"/>
  <rect x="224" y="120" width="44" height="66" rx="8" fill="#f6b93b" transform="rotate(8 246 153)"/>
  <path d="M288 176 q6 -50 44 -61 q9 38 -15 61 Z" fill="#5fbf3e"/>
  <path d="M84 132 h42 l38 160 h144 l32 -112 H154"
        fill="none" stroke="url(#cartm)" stroke-width="25"
        stroke-linecap="round" stroke-linejoin="round"/>
  <line x1="220" y1="234" x2="296" y2="234" stroke="#ffffff" stroke-width="13" stroke-linecap="round"/>
  <line x1="228" y1="266" x2="280" y2="266" stroke="#ffffff" stroke-width="13" stroke-linecap="round"/>
  <circle cx="210" cy="346" r="23" fill="#1e2a3a"/>
  <circle cx="296" cy="346" r="23" fill="#1e2a3a"/>
</svg>
